<?xml version="1.0" encoding="UTF-8"?>
<svg id="Floor" xmlns="http://www.w3.org/2000/svg" viewBox="0 0 490.45 492.01">
  <defs>
    <style>
      .cls-1 {
        fill: #fff;
      }

      .cls-2 {
        fill: #fafafa;
      }

      .cls-3 {
        fill: #f5f5f5;
      }

      .cls-4 {
        fill: #455a64;
      }

      .cls-5 {
        fill: #e0e0e0;
      }

      .cls-6 {
        fill: #2bc992;
      }

      .cls-7 {
        opacity: .3;
      }

      .cls-8 {
        fill: #ffbe9d;
      }

      .cls-9 {
        fill: #ebebeb;
      }

      .cls-10 {
        fill: #141414;
      }

      .cls-11 {
        fill: #263238;
      }
    </style>
  </defs>
  <g>
    <circle class="cls-3" cx="36.49" cy="43.48" r="28" transform="translate(-13.51 70.37) rotate(-78.27)"/>
    <path class="cls-5" d="m49.2,44.35s-.35.05-.99.07c-.7.01-1.61.03-2.72.05-2.31.03-5.53.05-9.16.06h-.18s0-.18,0-.18c0-.58,0-1.19,0-1.82,0-4.06.02-7.73.05-10.38.02-1.28.04-2.34.06-3.15.02-.74.05-1.15.07-1.15s.05.41.07,1.15c.01.81.03,1.87.06,3.15.03,2.66.05,6.33.05,10.38,0,.62,0,1.23,0,1.82l-.18-.18c3.63,0,6.85.03,9.16.06,1.11.02,2.02.04,2.72.05.64.02.99.04.99.07Z"/>
    <path class="cls-5" d="m36.42,20.09c.1,0,.18,1.05.18,2.35s-.08,2.35-.18,2.35-.18-1.05-.18-2.35.08-2.35.18-2.35Z"/>
    <path class="cls-5" d="m49.17,23.86c.07.07-.61.86-1.51,1.77-.91.91-1.7,1.58-1.77,1.51s.61-.86,1.51-1.77,1.7-1.58,1.77-1.51Z"/>
    <path class="cls-5" d="m56.63,32.01c.05.09-.84.63-1.93,1.29-1.09.66-1.97,1.2-2.03,1.12-.06-.08.74-.76,1.84-1.43,1.1-.67,2.07-1.07,2.12-.98Z"/>
    <path class="cls-5" d="m61,44.1c0,.1-1.44.18-3.21.18s-3.21-.08-3.21-.18,1.44-.18,3.21-.18,3.21.08,3.21.18Z"/>
    <path class="cls-5" d="m16.53,43.67c0,.1-1.36.18-3.03.18s-3.03-.08-3.03-.18,1.36-.18,3.03-.18,3.03.08,3.03.18Z"/>
    <path class="cls-5" d="m19.68,52.68c.07.08-.96,1.01-2.29,2.08-1.33,1.07-2.46,1.87-2.52,1.79-.06-.08.96-1.01,2.29-2.08,1.32-1.07,2.45-1.87,2.52-1.79Z"/>
    <path class="cls-5" d="m27.44,59.64c.08.06-.68,1.23-1.56,2.7-.89,1.47-1.56,2.69-1.65,2.64-.09-.04.45-1.34,1.34-2.83.89-1.49,1.79-2.57,1.87-2.51Z"/>
    <path class="cls-5" d="m36.42,68.62c-.1,0-.18-1.44-.18-3.21s.08-3.21.18-3.21.18,1.44.18,3.21-.08,3.21-.18,3.21Z"/>
    <path class="cls-5" d="m50.24,64.35c-.05.08-1.31-.64-2.64-1.81-1.34-1.17-2.23-2.31-2.16-2.37.08-.07,1.07.95,2.39,2.1,1.32,1.15,2.46,2,2.41,2.08Z"/>
    <path class="cls-5" d="m56.73,57.36c-.07.07-1.02-.77-2.12-1.87-1.1-1.1-1.94-2.05-1.87-2.12s1.02.77,2.12,1.87c1.1,1.1,1.94,2.05,1.87,2.12Z"/>
    <path class="cls-5" d="m19.38,35.05c-.07.07-.91-.65-1.87-1.62-.96-.96-1.69-1.8-1.62-1.87.07-.07.91.65,1.87,1.62.96.96,1.69,1.8,1.62,1.87Z"/>
    <path class="cls-5" d="m27.39,26.62c-.07.07-.9-.64-1.84-1.58-.95-.94-1.66-1.76-1.59-1.84.07-.07.9.64,1.84,1.58.95.94,1.66,1.76,1.59,1.83Z"/>
  </g>
  <g>
    <g>
      <rect class="cls-2" x="415.86" y="17.35" width="61.12" height="54.68"/>
      <path class="cls-5" d="m476.98,72.03s-.01-.35-.02-1.01c0-.67,0-1.65-.02-2.93,0-2.57-.02-6.32-.04-11.1-.02-9.55-.04-23.21-.07-39.64l.14.14c-17.6,0-38.61.02-61.11.02h0l.16-.16c0,19.89-.01,38.61-.02,54.68l-.14-.14c18.23.03,33.49.06,44.2.07,5.36.02,9.58.03,12.47.04,1.44,0,2.55.01,3.3.02.37,0,.65,0,.85,0,.19,0,.29,0,.29,0,0,0-.09,0-.28,0-.2,0-.47,0-.84,0-.75,0-1.85,0-3.27.02-2.88,0-7.09.02-12.44.04-10.73.02-26.03.04-44.3.07h-.14s0-.14,0-.14c0-16.07-.01-34.79-.02-54.68v-.16h.17c22.5,0,43.51.02,61.11.02h.14v.14c-.03,16.47-.05,30.15-.07,39.72-.02,4.77-.03,8.51-.04,11.07,0,1.27-.01,2.24-.02,2.9,0,.65-.02.98-.02.98Z"/>
    </g>
    <path class="cls-5" d="m439.29,27.07c0,.09-3.22.16-7.18.16s-7.19-.07-7.19-.16,3.22-.16,7.19-.16,7.18.07,7.18.16Z"/>
    <path class="cls-5" d="m465.19,31.17c0,.09-8.84.16-19.74.16s-19.74-.07-19.74-.16,8.84-.16,19.74-.16,19.74.07,19.74.16Z"/>
    <rect class="cls-5" x="425.03" y="38.13" width="2.57" height="2.57"/>
    <rect class="cls-5" x="431.37" y="38.13" width="2.57" height="2.57"/>
    <rect class="cls-5" x="437.82" y="38.01" width="2.57" height="2.57"/>
    <rect class="cls-5" x="444.05" y="38.13" width="2.57" height="2.57"/>
    <rect class="cls-5" x="450.38" y="38.13" width="2.57" height="2.57"/>
    <rect class="cls-5" x="456.72" y="38.13" width="2.57" height="2.57"/>
    <rect class="cls-9" x="463.06" y="38.13" width="2.57" height="2.57"/>
    <rect class="cls-9" x="425.03" y="43.6" width="2.57" height="2.57"/>
    <rect class="cls-5" x="431.37" y="43.6" width="2.57" height="2.57"/>
    <rect class="cls-9" x="437.71" y="43.6" width="2.57" height="2.57"/>
    <rect class="cls-5" x="444.05" y="43.6" width="2.57" height="2.57"/>
    <rect class="cls-5" x="450.38" y="43.6" width="2.57" height="2.57"/>
    <rect class="cls-5" x="456.84" y="43.48" width="2.57" height="2.57"/>
    <rect class="cls-5" x="463.06" y="43.6" width="2.57" height="2.57"/>
    <rect class="cls-5" x="425.03" y="49.07" width="2.57" height="2.57"/>
    <rect class="cls-5" x="431.49" y="48.96" width="2.57" height="2.57"/>
    <rect class="cls-5" x="437.71" y="49.07" width="2.57" height="2.57"/>
    <rect class="cls-9" x="444.05" y="49.07" width="2.57" height="2.57"/>
    <rect class="cls-5" x="450.38" y="49.07" width="2.57" height="2.57"/>
    <rect class="cls-5" x="456.72" y="49.07" width="2.57" height="2.57"/>
    <rect class="cls-5" x="463.06" y="49.07" width="2.57" height="2.57"/>
    <rect class="cls-5" x="425.03" y="54.55" width="2.57" height="2.57"/>
    <rect class="cls-5" x="431.37" y="54.55" width="2.57" height="2.57"/>
    <rect class="cls-5" x="437.71" y="54.55" width="2.57" height="2.57"/>
    <rect class="cls-5" x="444.16" y="54.43" width="2.57" height="2.57"/>
    <rect class="cls-5" x="450.38" y="54.55" width="2.57" height="2.57"/>
    <rect class="cls-9" x="456.72" y="54.55" width="2.57" height="2.57"/>
    <rect class="cls-5" x="463.06" y="54.55" width="2.57" height="2.57"/>
    <rect class="cls-5" x="425.03" y="60.02" width="2.57" height="2.57"/>
    <rect class="cls-9" x="431.37" y="60.02" width="2.57" height="2.57"/>
    <rect class="cls-5" x="437.71" y="60.02" width="2.57" height="2.57"/>
    <rect class="cls-5" x="444.05" y="60.02" width="2.57" height="2.57"/>
    <rect class="cls-5" x="450.38" y="60.02" width="2.57" height="2.57"/>
    <rect class="cls-5" x="456.84" y="59.91" width="2.57" height="2.57"/>
    <rect class="cls-5" x="463.06" y="60.02" width="2.57" height="2.57"/>
  </g>
  <g>
    <g>
      <path class="cls-3" d="m490.03,145.69c3.19,21.95-12.06,42.33-34.05,45.52-22,3.2-42.41-12-45.6-33.95-3.19-21.94,12.06-42.33,34.05-45.52,22-3.2,42.41,12,45.6,33.95Z"/>
      <path class="cls-9" d="m480.55,147.07c2.43,16.72-9.19,32.25-25.95,34.69-16.76,2.44-32.32-9.15-34.75-25.87-2.43-16.72,9.19-32.26,25.95-34.69,16.76-2.44,32.32,9.15,34.75,25.87Z"/>
      <path class="cls-5" d="m480.41,146.12c-.18.03-.51-1.28-1.33-3.53-.84-2.24-2.24-5.45-4.85-8.79-1.3-1.67-2.9-3.36-4.82-4.93-1.93-1.55-4.16-3.01-6.7-4.14-1.27-.57-2.6-1.08-4-1.48-1.4-.4-2.84-.73-4.34-.92-1.49-.19-3.03-.31-4.59-.27-1.56.04-3.13.19-4.71.46-1.57.29-3.11.69-4.58,1.19-1.48.5-2.88,1.13-4.22,1.83-1.34.69-2.59,1.5-3.76,2.36-1.18.85-2.25,1.79-3.24,2.76-1.99,1.94-3.59,4.07-4.86,6.2-1.26,2.14-2.18,4.28-2.83,6.29-1.3,4.04-1.51,7.54-1.53,9.92,0,2.4.15,3.74-.03,3.77-.13.03-.59-1.27-.88-3.73-.27-2.44-.32-6.11.84-10.44.58-2.16,1.46-4.47,2.73-6.78,1.28-2.31,2.93-4.63,5.02-6.76,1.04-1.07,2.18-2.09,3.43-3.03,1.25-.94,2.58-1.83,4.02-2.59,1.43-.77,2.94-1.46,4.54-2.01,1.59-.55,3.24-.99,4.94-1.3,1.7-.29,3.4-.45,5.08-.48,1.68-.03,3.34.1,4.95.33,1.61.22,3.17.6,4.66,1.05,1.5.45,2.92,1.02,4.27,1.66,2.7,1.28,5.05,2.89,7.04,4.62,1.99,1.74,3.61,3.61,4.9,5.43,2.58,3.67,3.8,7.12,4.39,9.51.58,2.41.59,3.78.46,3.8Z"/>
    </g>
    <path class="cls-5" d="m456.27,169.09l.85,5.28-4.71.75-.82-5.13c-4.71.46-9.42-.28-12.33-1.89l1.67-6.16c2.63,1.37,6.23,2.09,9.67,1.88l-1.26-7.87c-5.43-.43-11.55-1.24-12.63-7.98-.8-4.99,2.14-9.86,9.45-11.9l-.84-5.23,4.71-.75.82,5.13c3.58-.28,7.17.11,10.02,1.34l-1.43,6.17c-2.62-.98-5.2-1.39-7.6-1.3l1.28,8.01c5.42.39,11.45,1.21,12.51,7.85.78,4.9-2.12,9.71-9.37,11.79Zm-8.04-20.06l-1.07-6.69c-2.41.96-3.18,2.49-2.93,4.04.26,1.65,1.82,2.32,4,2.64Zm9.92,10.05c-.26-1.65-1.77-2.32-3.91-2.71l1.04,6.5c2.27-.89,3.11-2.28,2.87-3.79Z"/>
  </g>
  <g>
    <g>
      <path class="cls-3" d="m204.84,123.53c1.99,13.72-7.54,26.46-21.28,28.45-13.75,2-26.51-7.5-28.5-21.22-1.99-13.72,7.54-26.46,21.28-28.45,13.75-2,26.51,7.5,28.5,21.22Z"/>
      <path class="cls-9" d="m198.92,124.4c1.52,10.45-5.74,20.16-16.22,21.68-10.48,1.52-20.2-5.72-21.72-16.17-1.52-10.45,5.74-20.16,16.22-21.68,10.48-1.52,20.2,5.72,21.72,16.17Z"/>
      <path class="cls-5" d="m198.83,123.8c-.11.02-.32-.8-.83-2.21-.52-1.4-1.4-3.4-3.03-5.5-.81-1.04-1.81-2.1-3.01-3.08-1.21-.97-2.6-1.88-4.19-2.59-.79-.36-1.62-.68-2.5-.92-.87-.25-1.78-.46-2.71-.58-.93-.12-1.89-.19-2.87-.17-.97.02-1.96.12-2.94.29-.98.18-1.94.43-2.86.75-.92.31-1.8.71-2.64,1.14-.84.43-1.62.94-2.35,1.48-.74.53-1.41,1.12-2.03,1.73-1.25,1.21-2.24,2.55-3.04,3.87-.79,1.34-1.36,2.67-1.77,3.93-.81,2.53-.95,4.71-.95,6.2,0,1.5.09,2.34-.02,2.36-.08.02-.37-.79-.55-2.33-.17-1.53-.2-3.82.53-6.52.36-1.35.91-2.79,1.71-4.24.8-1.44,1.83-2.9,3.14-4.23.65-.67,1.36-1.31,2.14-1.89.78-.59,1.61-1.14,2.51-1.62.9-.48,1.84-.91,2.83-1.26.99-.34,2.03-.62,3.09-.81,1.06-.18,2.13-.28,3.18-.3,1.05-.02,2.09.06,3.09.2,1.01.14,1.98.37,2.92.66.94.28,1.83.64,2.67,1.04,1.69.8,3.15,1.81,4.4,2.89,1.24,1.09,2.26,2.25,3.06,3.39,1.61,2.29,2.38,4.45,2.74,5.94.36,1.5.37,2.36.29,2.38Z"/>
    </g>
    <path class="cls-5" d="m183.74,138.16l.53,3.3-2.94.47-.51-3.21c-2.94.29-5.89-.17-7.71-1.18l1.04-3.85c1.65.85,3.89,1.31,6.05,1.18l-.79-4.92c-3.39-.27-7.22-.78-7.89-4.99-.5-3.12,1.34-6.16,5.9-7.44l-.52-3.27,2.94-.47.51,3.21c2.24-.18,4.48.07,6.26.84l-.89,3.86c-1.64-.61-3.25-.87-4.75-.81l.8,5.01c3.39.24,7.16.76,7.82,4.91.49,3.06-1.32,6.07-5.86,7.37Zm-5.03-12.54l-.67-4.18c-1.5.6-1.98,1.56-1.83,2.53.17,1.03,1.14,1.45,2.5,1.65Zm6.2,6.28c-.17-1.03-1.11-1.45-2.45-1.69l.65,4.06c1.42-.56,1.95-1.43,1.79-2.37Z"/>
  </g>
  <g>
    <g>
      <path class="cls-3" d="m380.21,20.98c1.75,12.03-6.61,23.21-18.67,24.96-12.06,1.75-23.25-6.58-25-18.61-1.75-12.03,6.61-23.21,18.67-24.96,12.06-1.75,23.25,6.58,25,18.61Z"/>
      <path class="cls-9" d="m375.01,21.74c1.33,9.17-5.04,17.68-14.23,19.02-9.19,1.34-17.72-5.01-19.05-14.18-1.33-9.17,5.04-17.68,14.23-19.02,9.19-1.34,17.72,5.01,19.05,14.18Z"/>
      <path class="cls-5" d="m374.93,21.22c-.1.02-.28-.7-.73-1.94-.46-1.23-1.23-2.99-2.66-4.82-.71-.91-1.59-1.84-2.64-2.7-1.06-.85-2.28-1.65-3.67-2.27-.69-.31-1.42-.59-2.19-.81-.76-.22-1.56-.4-2.38-.51-.82-.11-1.66-.17-2.51-.15-.85.02-1.72.1-2.58.25-.86.16-1.7.38-2.51.65-.81.27-1.58.62-2.31,1-.74.38-1.42.82-2.06,1.29-.65.47-1.23.98-1.78,1.51-1.09,1.06-1.97,2.23-2.67,3.4-.69,1.17-1.19,2.34-1.55,3.45-.71,2.22-.83,4.13-.84,5.44,0,1.32.08,2.05-.02,2.07-.07.01-.32-.69-.48-2.04-.15-1.34-.17-3.35.46-5.72.32-1.18.8-2.45,1.5-3.72.7-1.26,1.61-2.54,2.75-3.71.57-.58,1.19-1.15,1.88-1.66.68-.52,1.41-1,2.2-1.42.79-.42,1.61-.8,2.49-1.1.87-.3,1.78-.54,2.71-.71.93-.16,1.87-.25,2.79-.26.92-.02,1.83.06,2.71.18.88.12,1.74.33,2.56.58.82.25,1.6.56,2.34.91,1.48.7,2.77,1.59,3.86,2.53,1.09.95,1.98,1.98,2.69,2.98,1.42,2.01,2.08,3.91,2.41,5.21.32,1.32.33,2.07.25,2.08Z"/>
    </g>
    <path class="cls-5" d="m361.69,33.81l.46,2.89-2.58.41-.45-2.81c-2.58.25-5.16-.15-6.76-1.04l.92-3.38c1.44.75,3.41,1.15,5.3,1.03l-.69-4.31c-2.98-.24-6.33-.68-6.92-4.37-.44-2.74,1.17-5.41,5.18-6.52l-.46-2.87,2.58-.41.45,2.82c1.96-.16,3.93.06,5.49.74l-.78,3.38c-1.44-.54-2.85-.76-4.17-.71l.7,4.39c2.97.21,6.28.66,6.86,4.3.43,2.69-1.16,5.32-5.14,6.46Zm-4.41-11l-.59-3.67c-1.32.53-1.74,1.36-1.6,2.22.15.9,1,1.27,2.19,1.45Zm5.44,5.51c-.15-.9-.97-1.27-2.14-1.48l.57,3.56c1.25-.49,1.71-1.25,1.57-2.08Z"/>
  </g>
  <g>
    <rect class="cls-2" y="126.04" width="82.51" height="51.07"/>
    <path class="cls-9" d="m62.59,162.96c-5.72-2.17-12.3,3.83-17.91,1.38-3.26-1.42-4.74-5.11-6.34-8.3-1.6-3.18-4.35-6.54-7.9-6.17-3.57.37-6.46,4.51-9.91,3.51-2.17-.63-3.26-3.04-3.81-5.24-.55-2.2-.92-4.63-2.58-6.17-1.66-1.54-5.11-1.13-5.37,1.12v27.07h64.52s-8.72-6.47-10.7-7.22Z"/>
    <path class="cls-5" d="m75.02,170.18c0,.06-15.64.11-34.93.11s-34.93-.05-34.93-.11,15.64-.1,34.93-.1,34.93.05,34.93.1Z"/>
    <path class="cls-5" d="m75.02,158.36c0,.06-15.64.11-34.93.11s-34.93-.05-34.93-.11,15.64-.1,34.93-.1,34.93.05,34.93.1Z"/>
    <path class="cls-5" d="m75.02,146.53c0,.06-15.64.1-34.93.1s-34.93-.05-34.93-.1,15.64-.1,34.93-.1,34.93.05,34.93.1Z"/>
    <path class="cls-5" d="m75.02,135.3c0,.06-15.64.1-34.93.1s-34.93-.05-34.93-.1,15.64-.1,34.93-.1,34.93.05,34.93.1Z"/>
  </g>
  <g>
    <path class="cls-9" d="m194.85,68.9l5.59-1.61s1.35,4.7,6.25,3.38c2.55-.68,3.38-2.72,3.55-4.15.2-1.66-.47-3.28-1.7-4.42-1.4-1.29-3.88-2.12-7.46-.37l-3.62-12.61,5.53-1.59,2.12,7.39s8.33-.22,10.79,8.33c2.35,8.18-4.44,12.18-7.58,13.08-2.4.69-10.75,2.46-13.47-7.44Z"/>
    <rect class="cls-9" x="195.84" y="40.38" width="5.84" height="5.45" transform="translate(-4.18 56.51) rotate(-16.02)"/>
  </g>
  <g>
    <path class="cls-9" d="m298.96,64.59l-3.06-1.7s1.42-2.57-1.22-4.1c-1.37-.79-2.6-.28-3.28.25-.79.62-1.19,1.6-1.16,2.6.05,1.14.75,2.55,3.02,3.33l-3.82,6.9-3.03-1.68,2.24-4.04s-3.64-3.45-1.05-8.13c2.48-4.48,7.07-3.29,8.79-2.34,1.31.73,5.62,3.53,2.57,8.89Z"/>
    <rect class="cls-9" x="284.58" y="72.25" width="3.51" height="3.28" transform="translate(501 277.28) rotate(-151.02)"/>
  </g>
  <polygon class="cls-9" points="113.1 339.72 88.47 382.97 140.18 382.97 113.1 339.72"/>
  <path class="cls-9" d="m104.59,378.58s-8.97,27.96,24.66,50.97c33.63,23.02,67.22,15.86,78.81,38.69h24.05s-10.92-20.07-36.16-29.21c-18.84-6.82-72.68-11.13-72.68-60.45h-18.68Z"/>
  <polygon class="cls-9" points="379.91 340.7 404.55 383.95 352.83 383.95 379.91 340.7"/>
  <path class="cls-9" d="m389.81,378.58s8.97,27.96-24.66,50.97c-33.63,23.02-67.22,15.86-78.81,38.69h-24.05s10.92-20.07,36.16-29.21c18.84-6.82,72.68-11.13,72.68-60.45h18.68Z"/>
  <g>
    <path class="cls-1" d="m307.52,231.48s-.39.05-1.14.08c-.82.02-1.91.04-3.28.07-2.93.03-7.04.07-12.08.12-10.27.03-24.32.07-39.85.11-.97,0-1.94,0-2.84,0h-.38s0-.38,0-.38c.05-14.88.09-28.23.12-37.95.05-4.77.09-8.64.12-11.4.03-1.29.05-2.31.07-3.09.02-.71.05-1.08.07-1.08s.05.37.07,1.08c.02.78.04,1.8.07,3.09.03,2.76.07,6.64.12,11.4.03,9.72.07,23.07.12,37.95l-.38-.38c.9,0,1.87,0,2.84,0,15.53.04,29.58.08,39.85.11,5.04.05,9.15.09,12.08.12,1.37.03,2.46.05,3.28.07.75.02,1.14.05,1.14.08Z"/>
    <path class="cls-1" d="m300.94,190.94s-.6.64-1.77,1.69c-1.28,1.12-2.96,2.6-5,4.39-4.24,3.68-10.13,8.72-16.67,14.26l-.99.84-.25.22-.24-.23c-2.61-2.43-5.11-4.75-7.41-6.89h.46c-4.37,3.61-8.11,6.7-10.89,8.99-1.28,1.02-2.33,1.87-3.16,2.53-.74.58-1.15.87-1.18.84-.03-.03.34-.39,1.03-1.02.79-.7,1.8-1.59,3.03-2.68,2.73-2.34,6.42-5.51,10.71-9.19l.23-.2.23.21c2.32,2.13,4.82,4.44,7.45,6.85h-.5s.99-.85.99-.85c6.54-5.53,12.48-10.51,16.81-14.09,2.1-1.71,3.84-3.13,5.15-4.2,1.23-.98,1.92-1.5,1.96-1.46Z"/>
    <path class="cls-1" d="m300.94,203.35c-.1,0-.19-1.4-.26-3.69-.07-2.29-.11-5.46-.12-9l.38.38c-.2,0-.42,0-.64,0-3.68,0-7.02-.04-9.43-.11-2.41-.07-3.9-.16-3.9-.27s1.49-.2,3.9-.27c2.41-.07,5.75-.11,9.43-.11.22,0,.44,0,.64,0h.38s0,.38,0,.38c0,3.54-.05,6.71-.12,9-.07,2.29-.16,3.69-.26,3.69Z"/>
  </g>
  <g>
    <g>
      <g>
        <g>
          <path class="cls-10" d="m226.14,457.15l2.57,21.31s-20.73,9.32-20.64,13.3l41.44-3.04-2.64-33.38-20.72,1.8Z"/>
          <path class="cls-5" d="m241.12,475.69c.83.15,1.46,1.02,1.34,1.85-.12.83-.99,1.49-1.82,1.35-.83-.14-1.63-1.15-1.41-1.97.21-.81,1.28-1.53,2.05-1.19"/>
          <path class="cls-11" d="m249.5,488.72l-.21-2.66-40.16,3.76s-1.25.92-1.26,2.18l41.63-3.28Z"/>
          <path class="cls-11" d="m228.34,478.63c.02.2,1.05.21,2.11.78,1.07.54,1.67,1.38,1.85,1.29.19-.06-.22-1.25-1.52-1.92-1.29-.68-2.5-.33-2.44-.15Z"/>
          <path class="cls-11" d="m224.11,480.82c-.03.2.88.47,1.65,1.28.79.78,1.04,1.7,1.25,1.68.19.02.24-1.19-.74-2.17-.96-.99-2.17-.98-2.16-.78Z"/>
          <path class="cls-11" d="m222.06,486.27c.19.03.39-1.02-.23-2.09-.61-1.08-1.61-1.44-1.68-1.26-.1.18.57.73,1.06,1.61.51.88.65,1.73.85,1.74Z"/>
          <path class="cls-11" d="m228.29,473.68c.1.18,1.01-.18,2.17-.2,1.16-.04,2.09.27,2.18.09.11-.16-.83-.84-2.2-.8-1.37.03-2.27.76-2.16.91Z"/>
        </g>
        <path class="cls-11" d="m227.16,469.13c0,.08.82.14,2.09-.19.63-.17,1.37-.44,2.13-.86.38-.21.77-.46,1.15-.74.18-.14.4-.28.59-.55.21-.23.29-.78,0-1.09-.24-.3-.63-.41-.93-.39-.31.02-.55.1-.78.17-.46.15-.88.34-1.26.56-.77.43-1.38.94-1.82,1.43-.89.98-1.16,1.77-1.09,1.8.1.06.52-.62,1.44-1.44.46-.41,1.06-.84,1.78-1.21.36-.18.75-.34,1.17-.47.43-.15.81-.19.94,0,.05.07.06.1-.03.24-.09.13-.26.26-.43.4-.35.27-.7.51-1.05.73-.7.42-1.38.73-1.96.95-1.17.44-1.95.56-1.94.67Z"/>
      </g>
      <g class="cls-7">
        <polygon points="247.93 468.17 248.25 472.91 228.22 474.45 227.89 470.15 247.93 468.17"/>
      </g>
    </g>
    <g>
      <g>
        <polygon class="cls-10" points="285.17 454.71 286.95 488.25 268.88 489.57 267.02 455.98 285.17 454.71"/>
        <path class="cls-11" d="m277.95,487.64c-.15,0-.57-7.33-.94-16.39-.37-9.06-.54-16.41-.39-16.42.15,0,.57,7.33.94,16.4.37,9.06.54,16.41.39,16.42Z"/>
        <polygon class="cls-11" points="286.83 485.94 268.75 487.2 268.88 489.57 286.95 488.25 286.83 485.94"/>
        <path class="cls-11" d="m268.28,478.84s.11-.29.43-.76c.31-.46.82-1.1,1.53-1.8.71-.7,1.65-1.47,2.83-2.1,1.17-.64,2.61-1.12,4.17-1.18,3.13-.15,5.84,1.26,7.21,2.72.71.72,1.16,1.41,1.42,1.9.26.5.36.79.33.81-.1.06-.59-1.1-2.02-2.43-1.38-1.33-3.95-2.59-6.92-2.45-2.96.13-5.33,1.74-6.75,3.02-1.45,1.31-2.14,2.34-2.22,2.28Z"/>
      </g>
      <g class="cls-7">
        <polygon points="286.02 468.25 286.06 472.87 267.96 472.98 267.73 468.79 286.02 468.25"/>
      </g>
    </g>
    <g>
      <path class="cls-11" d="m241.44,78.57l.57-.15c1.72-3.11,5.22-5.05,8.76-5.23,3.55-.18,7.08,1.27,9.74,3.62,1.85,1.63,3.31,3.67,5.16,5.3,1.86,1.62,4.33,2.85,6.74,2.34.3.9-1.38,1.43-1.28,2.37.05.45.51.74.95.83.65.13,1.32-.03,1.98-.01.66.02,1.41.33,1.58.97.08.31,0,.64-.08.96-.74,2.81-1.9,5.58-3.92,7.67-2.02,2.09-5,3.4-7.85,2.86-2.28-.43-4.19-1.92-6-3.37-3.44-2.75-6.88-5.51-10.31-8.26-1.59-1.27-3.19-2.56-4.39-4.2-1.2-1.64-1.97-3.7-1.65-5.7Z"/>
      <path class="cls-11" d="m243.6,79.14c-1.41-1.12-3.03-2.04-4.8-2.38-1.77-.34-3.71-.07-5.17.99-1.36.98-2.19,2.51-3.15,3.89-.96,1.38-2.23,2.72-3.89,2.96-.29.04-.61.06-.83.26-.38.36-.1,1.06.37,1.27.47.22,1.03.1,1.53-.01-.82.96-1.99,1.62-3.23,1.82.27,1.22,1.7,2.05,2.9,1.67-.48,1.95-.96,3.92-.95,5.93.01,2.01.57,4.08,1.93,5.55,1.5,1.62,3.94,2.53,4.6,4.64"/>
      <g>
        <path class="cls-8" d="m258.07,149.89l-26.84-.34,3-22.85s-1.83-.39-1.96-10.33c-.12-9.94-.58-26.83-.58-26.83h0c11.51-4.95,24.79-3.28,34.72,4.36l1.47,1.13-9.81,54.87Z"/>
        <path class="cls-8" d="m264.77,107.25c.17-.07,6.83-2.02,6.61,4.78-.22,6.8-7,5.18-7,4.98,0-.2.39-9.76.39-9.76Z"/>
        <path class="cls-8" d="m232.84,105.83c-.17-.07-6.23-1.71-6.01,5.09.22,6.8,7,5.18,7,4.98,0-.2-.99-10.07-.99-10.07Z"/>
        <path class="cls-11" d="m266.97,106.49c-1.02,5.7-.82,8.69-1.76,12.49-1.49,6.02-4.48,10.64-9.9,13.64-5.42,3.01-12.76,2.95-17.42-1.14-3.23-2.84-5.52-6.05-6-10.33-.48-4.28-1.74-12.31-1.77-16.61-.06-7.76.21-14.72.21-14.72l22.17-4.01,12.62,7.5,1.85,13.17Z"/>
        <path class="cls-11" d="m244.1,136.06c-.03.16,1.71.59,3.89.34,2.18-.23,3.78-1.04,3.72-1.18-.06-.17-1.7.34-3.79.56-2.08.24-3.79.09-3.82.27Z"/>
        <g>
          <path class="cls-11" d="m265.9,116.17c.65-5.84,1.07-12.51,1.98-18.67.34-2.31,1.16-5.64.96-7.96-.21-2.33-.84-1.62-1.87-3.73-1.29-2.64-6.22-4.4-9.1-4.98-2.88-.58-3.24-3.07-5.45-1.13-1.61-2.41-4.78-3.67-7.61-3.02-2.83.65-5.12,3.18-5.51,6.05-1.58-1.5-4.18-1.78-6.04-.65-1.86,1.13-2.81,3.57-2.21,5.66-1.59.26-3.02,1.37-3.67,2.85-.65,1.48-.51,3.28.37,4.63,1.03,1.58,2.88,2.45,4.01,3.96,1.3,1.74,1.44,4.27.34,6.14"/>
          <path class="cls-4" d="m237.33,114.96c-.15-.03-.46,2.79.77,5.97,1.19,3.2,3.29,5.11,3.38,4.99.15-.12-1.66-2.14-2.8-5.21-1.17-3.05-1.15-5.76-1.35-5.75Z"/>
          <path class="cls-4" d="m234.35,110c-.14-.07-1,2.35-.43,5.38.54,3.03,2.2,5,2.3,4.88.16-.1-1.19-2.12-1.69-4.99-.54-2.87.01-5.23-.18-5.27Z"/>
        </g>
      </g>
      <path class="cls-11" d="m262.27,86.5c-1.69-2.65-3.99-5.03-6.92-6.19-2.92-1.16-6.52-.92-8.91,1.12"/>
      <path class="cls-4" d="m261.72,101.55c-.11-.03,0-.79.22-2.01.21-1.21.53-2.88.51-4.71-.02-1.83-.47-3.45-1.02-4.51-.53-1.07-1.07-1.62-.98-1.71.05-.07.76.35,1.47,1.44.71,1.07,1.3,2.81,1.32,4.77.01,1.95-.41,3.66-.76,4.85-.36,1.19-.66,1.9-.76,1.88Z"/>
      <path class="cls-4" d="m257.13,103.8c-.2-.11.35-1.45.88-3.14.54-1.69.87-3.1,1.09-3.08.21.02.23,1.54-.34,3.31-.56,1.77-1.45,3.01-1.63,2.9Z"/>
      <path class="cls-4" d="m235.84,102.05c-.07.05-.83-.77-1.53-2.43-.69-1.63-1.21-4.18-.66-6.9.55-2.72,2-4.87,3.27-6.11,1.28-1.26,2.3-1.73,2.34-1.66.08.11-.82.73-1.93,2.03-1.11,1.29-2.39,3.35-2.9,5.89-.51,2.54-.12,4.94.41,6.55.53,1.63,1.11,2.55,1,2.62Z"/>
      <path class="cls-4" d="m260.08,76.76c-.06.1-.87-.32-2.19-.92-1.31-.58-3.2-1.34-5.35-1.31-2.16-.01-3.94.98-4.85,2.04-.94,1.05-1.11,1.97-1.24,1.94-.08,0-.11-1.02.81-2.29.46-.62,1.15-1.26,2.06-1.73.91-.47,2.04-.73,3.2-.75,2.36-.02,4.33.88,5.61,1.6,1.29.74,1.99,1.33,1.94,1.42Z"/>
      <path class="cls-4" d="m229.76,83.06c-.09-.03.07-.79.79-1.8.7-1,2.04-2.2,3.89-2.74,1.85-.53,3.63-.24,4.75.23,1.14.47,1.69,1.02,1.63,1.1-.07.1-.7-.27-1.81-.57-1.09-.31-2.7-.48-4.35,0-1.65.48-2.92,1.49-3.68,2.33-.77.84-1.11,1.5-1.22,1.45Z"/>
      <path class="cls-4" d="m237.07,108.04c-.03-.09,1.1-.39,2.88-1.19,1.78-.8,4.23-2.18,6.56-4.44l1.29-1.25-.7,1.66c-.42.99-.76,2.08-.96,3.23-.11.56-.2,1.26.01,1.36.15.17.76-.13,1.27-.49,1.81-1.16,3.34-2.57,4.56-4.03l1.18-1.41-.54,1.75c-.54,1.75-1.04,3.39-1.5,4.87l-.51-.31c3.11-2.94,4.19-5.57,4.34-5.47.05.02-.17.68-.76,1.77-.6,1.08-1.59,2.59-3.15,4.15l-.83.83.32-1.14c.42-1.49.88-3.14,1.38-4.9l.64.34c-1.24,1.53-2.83,3.01-4.71,4.22-.28.17-.53.36-.88.51-.31.14-.83.27-1.28-.05-.43-.34-.45-.84-.44-1.17.03-.36.08-.64.14-.95.23-1.21.59-2.35,1.06-3.38l.58.41c-2.45,2.3-5.03,3.62-6.89,4.32-1.88.7-3.04.85-3.05.79Z"/>
      <path class="cls-11" d="m250.04,81.83c-.43-.82-1.25-1.4-2.14-1.65-.89-.26-1.84-.23-2.76-.07-2.24.4-4.32,1.6-5.78,3.35-.33.4-.63,1.01-.28,1.39.19.2.49.24.76.26,3.34.28,6.71.16,10.02-.35"/>
    </g>
    <path class="cls-4" d="m264.94,147.03s-.51,0-1.43-.11c-1.02-.12-2.31-.27-3.86-.46-3.26-.38-7.77-.86-12.76-1.23-4.99-.36-9.52-.55-12.8-.64-1.56-.05-2.86-.08-3.89-.11-.92-.03-1.43-.06-1.43-.1,0-.04.51-.08,1.43-.11.92-.04,2.25-.06,3.89-.06,3.29,0,7.83.12,12.84.49,5,.37,9.52.91,12.77,1.39,1.63.24,2.94.46,3.84.63.9.17,1.4.28,1.39.32Z"/>
    <g>
      <path class="cls-11" d="m276.99,278.29l11.48,189.88-27.49,1.12s-6.94-73.89-12.72-105.89c-5.79-32-7.2-45.17-7.2-45.17l5.08-36.69,30.86-3.24Z"/>
      <path class="cls-11" d="m206.76,284.74s-2.71,22.73,0,52.06c2.71,29.33,15.68,135.91,15.68,135.91l28.76-2.26s-8.46-126.33-3.95-146.63l19.74-18.9,2.82-29.86-63.06,9.67Z"/>
      <path class="cls-4" d="m268.42,300.61s-.12.15-.38.4c-.3.29-.69.65-1.16,1.1-1.08.98-2.56,2.34-4.39,4.02-3.81,3.42-9.06,8.14-15.05,13.53l.09-.19c-.06,2.35-.12,4.78-.18,7.27-.28,9.8-.53,18.68-.72,25.17-.12,3.17-.21,5.76-.28,7.63-.04.86-.08,1.54-.1,2.07-.03.47-.05.72-.07.72-.02,0-.03-.25-.04-.72,0-.53,0-1.22,0-2.08.03-1.87.06-4.46.11-7.63.14-6.5.34-15.37.56-25.18.07-2.49.13-4.93.19-7.27v-.12s.09-.08.09-.08c6.04-5.33,11.33-10,15.18-13.38,1.88-1.63,3.39-2.94,4.5-3.9.5-.42.91-.76,1.22-1.03.28-.23.44-.34.45-.33Z"/>
    </g>
    <g>
      <path class="cls-11" d="m284.71,157.65s7.46,6.41,8.63,12.24c1.17,5.84,4.87,64.22,3.5,69.67-1.36,5.45-15.85,38.73-15.85,38.73l-4-32.5v-32.5l7.72-55.64Z"/>
      <g>
        <polygon class="cls-1" points="183.65 288.23 182.17 293.78 198.24 297.26 199.48 291.92 183.65 288.23"/>
        <path class="cls-11" d="m203.25,290.63v7.7s57.56-1.48,57.56-1.48c0,0,2.91-18.33,3.24-17.35.33.98,5.56,17.35,5.56,17.35l17.45-.03-8.62-71.81,6.26-67.37-21.64-11.67-2.25-4.66s-23.35-2.34-29.59-1.23l-2.18,5.62-8.31,2.96-13.98,76.36-3.51,65.62Z"/>
        <path class="cls-11" d="m206.89,151.51l17.07-6.22,6.94-6.22s4.98-2.13,12.8-3.56,15.65,2.31,15.65,2.31l4.45,6.4,22.05,16.01-2.13,61.18-66.51,4.8-10.31-74.69Z"/>
        <path class="cls-11" d="m194.07,215.8c.53-.71,2.86-51.5,3.75-55.6s6.05-8.89,9.07-8.71c3.02.18,18.32,11.2,18.32,31.12s-8.18,59.4-8.18,59.4l-16.54,50.15-18.32-4.27,12.09-73.27"/>
        <g>
          <path class="cls-11" d="m224.19,145.69c12.87-4.24,26.99-4.62,40.07-1.09"/>
          <path class="cls-4" d="m264.26,144.6s-.57-.07-1.58-.28c-1-.23-2.46-.51-4.27-.81-3.61-.61-8.67-1.14-14.26-.99-5.59.16-10.61.96-14.19,1.77-1.79.4-3.23.76-4.22,1.04-.99.27-1.55.4-1.56.37-.01-.04.52-.24,1.5-.57.97-.34,2.4-.77,4.19-1.22,3.57-.91,8.63-1.78,14.26-1.94,5.64-.15,10.73.45,14.35,1.16,1.81.35,3.26.7,4.25.99.99.28,1.53.45,1.52.49Z"/>
        </g>
        <path class="cls-4" d="m282.64,177.87s0,.09,0,.26c-.01.2-.03.45-.05.76-.06.71-.14,1.68-.24,2.9-.24,2.52-.55,6.17-.92,10.67-.71,9.01-1.58,21.49-1.35,35.28.21,13.8,1.72,26.22,2.87,35.19.6,4.45,1.08,8.06,1.43,10.62.16,1.22.29,2.18.38,2.89.03.3.06.55.08.75.02.17.02.26.01.26,0,0-.03-.08-.07-.25-.04-.2-.08-.44-.14-.75-.12-.7-.28-1.66-.48-2.87-.41-2.5-.97-6.12-1.6-10.6-1.25-8.95-2.83-21.4-3.04-35.23-.24-13.82.69-26.32,1.51-35.32.41-4.51.79-8.15,1.09-10.66.15-1.22.26-2.19.35-2.89.04-.3.08-.55.1-.75.03-.17.04-.25.05-.25Z"/>
        <g>
          <path class="cls-11" d="m225.21,182.61c0,19.92-8.18,59.4-8.18,59.4l-16.54,50.15-18.32-4.27,12.09-73.27"/>
          <path class="cls-4" d="m194.27,214.62s0,.12-.04.36c-.04.26-.09.61-.15,1.06-.15.95-.36,2.32-.63,4.09-.57,3.59-1.4,8.77-2.44,15.27-2.13,13.05-5.12,31.36-8.57,52.54l-.2-.3c5.89,1.37,12.02,2.79,18.32,4.26l-.32.18c.99-2.99,2.03-6.17,3.09-9.38,4.82-14.6,9.4-28.45,13.47-40.76v.03c3.52-17.39,5.86-32.22,7.1-42.71.65-5.24.93-9.41,1.12-12.26.08-1.42.09-2.52.13-3.26.02-.35.03-.63.04-.84.01-.19.02-.28.03-.28s.01.1.01.28c0,.21,0,.49,0,.84-.01.74,0,1.84-.05,3.27-.14,2.85-.37,7.03-.98,12.28-1.16,10.51-3.43,25.36-6.92,42.78h0s0,.03,0,.03c-4.05,12.32-8.61,26.17-13.42,40.77-1.06,3.21-2.11,6.39-3.1,9.38l-.08.24-.24-.06c-6.3-1.47-12.42-2.9-18.31-4.28l-.24-.06.04-.24c3.53-21.17,6.59-39.47,8.77-52.51,1.1-6.49,1.98-11.66,2.59-15.24.31-1.76.55-3.12.72-4.07.08-.45.15-.79.2-1.05.05-.24.07-.35.08-.35Z"/>
        </g>
        <g>
          <path class="cls-11" d="m194.07,215.8c.53-.71,2.86-51.5,3.75-55.6"/>
          <path class="cls-4" d="m197.82,160.2s0,.2-.04.57c-.03.43-.08.97-.13,1.62-.09,1.49-.22,3.5-.38,5.96-.29,5.11-.68,12.02-1.12,19.67-.44,7.68-.86,14.64-1.23,19.67-.36,5.03-.69,8.15-.86,8.12-.02-.02.03-.19.05-.56.03-.43.06-.97.1-1.62.08-1.49.19-3.5.32-5.96.28-5.11.65-12.03,1.07-19.68.44-7.68.88-14.64,1.28-19.66.2-2.51.39-4.55.55-5.95.08-.7.17-1.24.23-1.61.08-.37.13-.55.15-.55Z"/>
        </g>
        <path class="cls-4" d="m222.81,171.31c-.1.02-.33-1.45-1.1-3.7-.38-1.13-.94-2.42-1.66-3.81-.75-1.37-1.67-2.83-2.79-4.25-1.14-1.4-2.36-2.62-3.54-3.65-1.2-1.01-2.34-1.84-3.36-2.45-2.02-1.24-3.41-1.78-3.37-1.88.01-.04.37.08,1,.32.63.23,1.52.64,2.57,1.23,1.06.58,2.25,1.39,3.49,2.4,1.22,1.03,2.48,2.26,3.64,3.7,1.15,1.45,2.08,2.94,2.81,4.36.71,1.43,1.25,2.77,1.58,3.93.2.57.3,1.11.41,1.57.12.46.18.87.23,1.2.09.67.13,1.04.09,1.04Z"/>
        <path class="cls-4" d="m283.5,157.99c.07,0,.25.79.39,2.11.14,1.32.22,3.16.1,5.18-.12,2.03-.41,3.84-.71,5.14-.29,1.3-.56,2.07-.63,2.05-.16-.04.57-3.22.79-7.22.24-4-.11-7.25.05-7.27Z"/>
        <path class="cls-4" d="m271.65,209.89c.1.11-7.75,7.51-17.53,16.52-9.79,9.01-17.8,16.23-17.91,16.11-.1-.11,7.75-7.51,17.53-16.52,9.78-9.01,17.8-16.22,17.9-16.11Z"/>
        <path class="cls-4" d="m263.1,278.29s-.05-.59-.04-1.65c.01-1.16.03-2.67.05-4.49.04-3.79.05-9.03-.1-14.82-.15-5.79-.44-11.02-.68-14.81-.12-1.82-.22-3.33-.29-4.48-.07-1.06-.08-1.65-.05-1.65.04,0,.13.58.26,1.63.13,1.05.29,2.58.47,4.47.34,3.78.69,9.02.85,14.82.15,5.8.08,11.05-.06,14.84-.07,1.9-.15,3.43-.23,4.49-.08,1.06-.14,1.64-.17,1.64Z"/>
        <path class="cls-4" d="m287.06,296.83s-.11.02-.31.03c-.24,0-.55.02-.92.03-.86.02-2.04.04-3.56.07-3.13.03-7.59.08-13.08.14h-.14s-.05-.14-.05-.14c-1.66-4.87-3.65-10.71-5.84-17.15l.5-.04c-.79,5.29-1.66,11.09-2.57,17.14l-.03.23h-.23c-.67.02-1.39.04-2.12.06-15.29.36-29.13.69-39.2.93-4.98.09-9.03.17-11.88.22-1.37.01-2.45.02-3.23.03-.34,0-.62,0-.84,0-.19,0-.29-.01-.29-.02,0,0,.1-.02.29-.04.22-.01.5-.03.84-.05.78-.03,1.86-.08,3.23-.13,2.85-.09,6.89-.23,11.88-.39,10.07-.28,23.91-.67,39.2-1.09.73-.02,1.45-.04,2.12-.05l-.26.23c.92-6.05,1.8-11.84,2.6-17.13l.16-1.06.34,1.01c2.16,6.46,4.11,12.31,5.74,17.19l-.19-.14c5.49.02,9.95.03,13.08.04,1.51.02,2.7.03,3.56.04.38.01.68.02.92.03.21,0,.31.02.31.03Z"/>
      </g>
    </g>
    <g>
      <path class="cls-8" d="m184.17,294.21s-3.64,9.91-2.46,11.81c1.19,1.9,7.11,9.73,8.38,9.73s7.61-1.9,7.61-1.9c0,0,5.08-6.86,4.44-7.34-.63-.48-2.33-2.48-3.81,0l-3.6,3.96-1.27-5.08s2.63-5.34,4.11-8.13l-13.42-3.05Z"/>
      <polygon class="cls-4" points="181.4 318.43 177 318.68 165.83 381.62 216.93 382.97 224.27 382.03 216.17 316.86 181.4 318.43"/>
      <g>
        <path class="cls-4" d="m172.42,345.14h39.18l1.58-28.14,2,65.98"/>
        <path class="cls-11" d="m215.19,382.97s-.02-.11-.04-.34c-.01-.25-.03-.58-.06-1-.04-.91-.1-2.2-.17-3.84-.12-3.37-.3-8.18-.52-14.12-.38-11.96-.91-28.44-1.5-46.68h.55c-.01.22-.03.45-.04.68-.56,9.82-1.09,19.14-1.57,27.46v.24s-.25,0-.25,0c-11.55-.04-21.33-.08-28.27-.1-3.42-.03-6.14-.05-8.04-.07-.91-.02-1.62-.03-2.13-.04-.22,0-.4-.01-.55-.02-.12,0-.19-.01-.19-.02s.06-.01.19-.02c.15,0,.33-.01.55-.02.52,0,1.23-.02,2.13-.04,1.9-.02,4.62-.04,8.04-.07,6.94-.02,16.72-.06,28.27-.1l-.25.24c.46-8.32.98-17.64,1.52-27.47.01-.23.03-.46.04-.68h.55c.52,18.25.99,34.72,1.34,46.69.14,5.94.26,10.76.34,14.13.03,1.64.05,2.93.07,3.84,0,.41,0,.74,0,1,0,.23,0,.34-.02.34Z"/>
      </g>
      <path class="cls-4" d="m193.6,305.87s2.09-1.77,4.07-.45c1.98,1.32,5.01,12.05,5.2,12.04.18,0-5.81,1.22-5.81,1.22l-3.45-12.81Z"/>
      <path class="cls-4" d="m185.55,311.2s-1.74,3.97-1.55,7.49h4.28l.35-3.97-3.08-3.51Z"/>
    </g>
  </g>
  <g>
    <g>
      <circle class="cls-2" cx="253.34" cy="29.71" r="29.71" transform="translate(53.2 187.84) rotate(-45)"/>
      <path class="cls-11" d="m223.79,32.02s0-.16,0-.48c0-.32-.01-.79-.02-1.41,0-.31-.01-.66-.02-1.04,0-.38.06-.8.09-1.25.04-.45.07-.94.11-1.46.01-.26.05-.53.11-.8.05-.27.1-.55.15-.84.34-2.32,1.19-5.1,2.65-8.09,1.47-2.98,3.69-6.15,6.83-8.93.39-.34.79-.69,1.2-1.05.42-.33.87-.63,1.32-.96.22-.16.45-.32.67-.48.22-.16.45-.33.7-.46.48-.28.97-.57,1.47-.85.25-.14.49-.29.75-.43.26-.12.53-.24.79-.36.53-.24,1.07-.49,1.61-.73.55-.23,1.13-.4,1.7-.6.29-.1.57-.2.86-.29.15-.05.29-.1.44-.14l.45-.1c1.2-.27,2.41-.61,3.68-.72.63-.07,1.27-.18,1.91-.22.65-.02,1.3-.03,1.95-.05.33,0,.66-.03.99-.01.33.02.66.05.99.07.66.06,1.33.08,2,.17,1.32.25,2.69.41,4.01.84.33.09.67.19,1,.28.17.05.34.09.5.14l.49.19c.65.25,1.31.51,1.97.77.65.29,1.27.63,1.92.95.32.17.65.31.95.5l.92.58c1.26.73,2.38,1.67,3.55,2.57.54.51,1.08,1.02,1.62,1.53l.41.38c.13.14.25.28.37.42l.74.85.75.85.67.92.67.93.33.46c.1.16.19.33.29.49.38.66.77,1.33,1.16,1.99.32.7.64,1.41.97,2.11,1.19,2.87,1.95,5.97,2.24,9.15.21,3.19-.06,6.36-.79,9.39-.21.75-.42,1.5-.63,2.24-.28.72-.56,1.44-.84,2.15l-.21.53-.26.51-.51,1.02-.52,1.01-.61.96-.6.95-.3.47-.34.44c-.46.59-.91,1.18-1.37,1.76-1.02,1.07-1.98,2.18-3.11,3.09l-.81.72c-.27.24-.58.43-.86.64-.59.41-1.15.85-1.74,1.24-.61.36-1.22.71-1.83,1.06l-.45.26c-.16.08-.32.15-.47.22-.32.15-.63.29-.95.43-1.24.63-2.56,1-3.83,1.45-.65.19-1.31.32-1.95.48-.32.08-.65.15-.97.23-.32.07-.65.09-.98.14-.65.08-1.3.17-1.94.25-.64.06-1.29.05-1.92.08-1.27.09-2.52-.06-3.75-.14l-.46-.03c-.15-.02-.3-.05-.45-.07-.3-.05-.6-.1-.9-.16-.59-.11-1.19-.19-1.77-.33-.57-.16-1.14-.32-1.7-.47-.28-.08-.56-.16-.84-.23-.27-.1-.54-.21-.81-.31-.53-.21-1.06-.41-1.58-.61-.27-.09-.51-.22-.76-.35-.25-.12-.49-.25-.74-.37-.49-.25-.98-.48-1.45-.74-.45-.29-.9-.57-1.35-.85-3.53-2.27-6.21-5.05-8.13-7.77-.24-.34-.49-.67-.72-1-.2-.35-.4-.69-.6-1.02-.2-.33-.39-.66-.58-.98-.09-.16-.19-.32-.27-.48-.08-.17-.15-.33-.23-.49-.3-.65-.58-1.27-.86-1.86-.26-.6-.43-1.2-.63-1.75-.1-.28-.19-.55-.28-.81-.1-.26-.18-.52-.23-.77-.12-.51-.23-.98-.34-1.42-.1-.44-.21-.84-.28-1.22-.05-.38-.1-.72-.14-1.03-.08-.61-.15-1.07-.19-1.39-.05-.31-.08-.47-.08-.47,0,0,.01.16.05.48.04.32.09.79.17,1.4.04.31.08.65.13,1.03.06.38.17.78.27,1.22.1.44.21.92.33,1.43.05.26.13.51.22.78.09.26.18.53.27.81.2.55.37,1.16.62,1.76.27.6.55,1.22.85,1.87.07.16.15.33.22.5.08.16.18.32.27.48.19.32.38.65.57.99.19.34.39.68.6,1.03.23.33.47.66.71,1.01,1.91,2.74,4.6,5.55,8.15,7.84.45.28.9.57,1.35.86.47.26.97.5,1.46.75.25.12.49.25.74.38.25.13.5.26.76.35.53.21,1.06.41,1.59.62.27.1.54.21.81.31.28.08.56.16.84.24.57.16,1.14.32,1.71.48.58.14,1.18.22,1.78.34.3.05.6.11.9.16.15.02.3.06.46.08l.46.03c1.24.08,2.5.24,3.78.15.64-.03,1.29-.01,1.94-.07.65-.08,1.3-.17,1.95-.25.33-.05.66-.07.99-.14.32-.08.65-.15.98-.23.65-.16,1.32-.29,1.97-.48,1.28-.46,2.62-.83,3.86-1.46.32-.14.64-.29.96-.44.16-.07.32-.14.48-.22l.46-.27c.61-.36,1.23-.71,1.84-1.07.6-.39,1.17-.83,1.76-1.24.29-.22.6-.41.87-.65l.82-.72c1.14-.92,2.12-2.04,3.14-3.12.46-.59.92-1.18,1.38-1.78l.35-.45.31-.48.61-.96.61-.97.52-1.02.52-1.03.26-.52.21-.54c.28-.72.56-1.44.84-2.17.21-.75.42-1.5.63-2.26.74-3.05,1.01-6.26.8-9.48-.29-3.21-1.06-6.33-2.26-9.23-.33-.71-.65-1.42-.98-2.13-.39-.67-.78-1.34-1.17-2.01-.1-.17-.19-.34-.29-.5l-.34-.47-.67-.94-.67-.93-.75-.86-.75-.85c-.13-.14-.25-.29-.38-.42l-.41-.39c-.55-.52-1.09-1.03-1.64-1.54-1.18-.91-2.32-1.86-3.59-2.59l-.92-.58c-.31-.2-.64-.34-.96-.51-.65-.32-1.28-.67-1.93-.96-.67-.26-1.33-.52-1.99-.77l-.49-.19c-.17-.05-.34-.1-.51-.15-.34-.09-.68-.19-1.01-.28-1.33-.44-2.71-.59-4.04-.84-.67-.08-1.35-.11-2.02-.17-.33-.02-.67-.05-1-.07-.33-.02-.66.01-.99.01-.66.02-1.32.04-1.97.06-.65.04-1.29.16-1.93.23-1.28.11-2.5.46-3.71.73l-.45.11c-.15.04-.29.1-.44.15-.29.1-.58.2-.87.3-.57.21-1.16.38-1.71.61-.54.25-1.08.5-1.62.74-.27.12-.53.24-.8.37-.26.14-.5.29-.75.43-.5.29-.99.58-1.48.86-.25.13-.48.3-.7.46-.23.16-.45.33-.68.49-.45.33-.9.64-1.32.97-.41.36-.81.71-1.2,1.06-3.15,2.81-5.37,6.01-6.83,9.01-1.45,3.01-2.29,5.81-2.62,8.14-.05.29-.1.57-.15.85-.05.27-.09.54-.1.8-.04.52-.07,1.01-.1,1.46-.03.45-.07.87-.08,1.25.01.38.02.73.04,1.04.02.61.04,1.08.05,1.41.01.32.03.48.03.48Z"/>
      <g>
        <path class="cls-6" d="m246.05,34.45h4.21s0,3.54,3.67,3.6c1.91.03,2.9-1.22,3.3-2.18.47-1.11.33-2.38-.3-3.41-.71-1.18-2.28-2.25-5.12-1.75v-9.5h4.16v5.56s5.84,1.51,5.84,7.95-5.52,7.59-7.89,7.59c-1.81,0-7.97-.44-7.89-7.87Z"/>
        <rect class="cls-6" x="251.81" y="15.31" width="4.23" height="3.95"/>
      </g>
    </g>
    <path class="cls-11" d="m239.69,64.36s.18-.26.61-.64c.42-.37,1.15-.81,2.15-.92.5-.05,1.05-.02,1.61.18.55.2,1.08.56,1.47,1.08.8,1.02,1.11,2.67.37,4.01-.76,1.32-2.35,1.9-3.63,1.74-.65-.07-1.23-.34-1.69-.71-.45-.37-.76-.84-.98-1.29-.42-.92-.42-1.77-.31-2.32.11-.56.27-.84.24-.85,0,0-.05.06-.12.2-.04.07-.08.15-.11.26-.04.1-.08.23-.11.37-.14.56-.18,1.45.24,2.42.21.48.53.98,1.01,1.38.47.4,1.1.71,1.8.79.69.09,1.45,0,2.15-.32.7-.3,1.34-.83,1.75-1.54.39-.72.52-1.54.42-2.29-.09-.76-.39-1.46-.83-2-.43-.56-1.01-.94-1.6-1.14-.59-.2-1.18-.22-1.7-.16-1.05.14-1.8.63-2.2,1.04-.11.1-.19.2-.26.29-.07.08-.13.16-.17.23-.08.13-.12.2-.11.2Z"/>
  </g>
  <g>
    <g>
      <rect class="cls-6" x="55.56" y="65.27" width="108.17" height="242.09"/>
      <polygon class="cls-6" points="163.73 54.61 58.59 54.61 48.58 54.61 48.58 65.27 48.58 307.36 58.59 307.36 58.59 65.27 163.73 65.27 163.73 307.36 174.6 307.36 174.6 65.27 174.6 54.61 163.73 54.61"/>
      <path class="cls-4" d="m174.6,54.61c.1.12-2.37,2.35-5.39,5.11-1.51,1.38-2.86,2.65-3.8,3.6-.47.47-.83.87-1.06,1.16-.24.29-.28.47-.32.47-.04,0-.06-.25.14-.59.18-.34.51-.79.95-1.31.88-1.03,2.2-2.35,3.72-3.74,1.52-1.39,2.93-2.59,3.98-3.43,1.05-.84,1.73-1.33,1.78-1.27Z"/>
      <path class="cls-4" d="m58.59,65.49c-.11.1-2.44-2.25-5.21-5.25-2.76-3.01-4.91-5.52-4.8-5.63.11-.1,2.44,2.25,5.21,5.25,2.76,3,4.91,5.52,4.8,5.63Z"/>
      <g>
        <path class="cls-11" d="m65.07,207.76h0c-2.01,0-3.64-1.63-3.64-3.64v-25.05c0-2.01,1.63-3.64,3.64-3.64h0c2.01,0,3.64,1.63,3.64,3.64v25.05c0,2.01-1.63,3.64-3.64,3.64Z"/>
        <path class="cls-4" d="m66.55,199.82c0-.68-.55-1.23-1.23-1.23s-1.23.55-1.23,1.23c0,.48.28.89.68,1.09v1.42c0,.3.25.55.55.55h0c.3,0,.55-.25.55-.55v-1.42c.4-.2.68-.61.68-1.09Z"/>
        <path class="cls-11" d="m83.08,190.18h-16.17c-1.07,0-1.93-.87-1.93-1.93h0c0-1.07.87-1.93,1.93-1.93h16.17c1.07,0,1.93.87,1.93,1.93h0c0,1.07-.87,1.93-1.93,1.93Z"/>
        <path class="cls-4" d="m72.25,190.29c0,.07-.86.13-2.27.21-.7.03-1.55.06-2.5-.06-.89-.11-2.13-.37-2.77-1.48-.29-.55-.34-1.2-.08-1.75.12-.27.36-.52.6-.65.24-.14.47-.22.71-.3.93-.3,1.81-.27,2.51-.27,1.41.04,2.27.15,2.27.21,0,.08-.87.12-2.26.18-.7.05-1.52.06-2.35.36-.43.16-.83.32-.98.7-.17.37-.14.86.07,1.26.47.82,1.49,1.11,2.36,1.24.89.14,1.72.15,2.42.17,1.4.02,2.28.1,2.27.18Z"/>
      </g>
    </g>
    <polygon class="cls-7" points="163.73 54.61 58.59 54.61 48.58 54.61 48.58 65.27 48.58 307.36 58.59 307.36 58.59 65.27 163.73 65.27 163.73 307.36 174.6 307.36 174.6 65.27 174.6 54.61 163.73 54.61"/>
    <path class="cls-11" d="m163.73,306.43s-.02-.41-.03-1.2c0-.8-.01-1.98-.02-3.53-.01-3.12-.03-7.71-.05-13.64-.02-11.89-.05-29.16-.08-50.7-.02-43.11-.06-103.34-.09-171.86l.27.27c-16.65,0-34,0-51.71,0-18.32,0-36.25,0-53.49,0l.27-.27c-.04,68.09-.07,127.88-.09,170.67-.03,21.38-.06,38.51-.08,50.3-.02,5.89-.04,10.44-.05,13.53-.01,1.53-.02,2.7-.02,3.5,0,.79-.02,1.19-.02,1.19,0,0-.02-.4-.03-1.19,0-.8-.01-1.97-.02-3.5-.01-3.09-.03-7.64-.05-13.53-.02-11.79-.05-28.92-.08-50.3-.02-42.78-.06-102.57-.09-170.67v-.27s.27,0,.27,0c17.24,0,35.16,0,53.49,0,17.71,0,35.06,0,51.71,0h.27v.27c-.04,68.52-.07,128.75-.09,171.86-.03,21.55-.06,38.81-.08,50.7-.02,5.93-.04,10.52-.05,13.64-.01,1.55-.02,2.73-.02,3.53,0,.79-.03,1.2-.03,1.2Z"/>
  </g>
  <g>
    <g>
      <rect class="cls-6" x="323.11" y="65.34" width="108.17" height="242.09"/>
      <polygon class="cls-6" points="431.29 54.68 326.15 54.68 316.14 54.68 316.14 65.34 316.14 307.43 326.15 307.43 326.15 65.34 431.29 65.34 431.29 307.43 442.16 307.43 442.16 65.34 442.16 54.68 431.29 54.68"/>
      <path class="cls-4" d="m442.16,54.68c.1.12-2.37,2.35-5.39,5.11-1.51,1.38-2.86,2.65-3.8,3.6-.47.47-.83.87-1.06,1.16-.24.29-.28.47-.32.47-.04,0-.06-.25.14-.59.18-.34.51-.79.95-1.31.88-1.03,2.2-2.35,3.72-3.74,1.52-1.39,2.93-2.59,3.98-3.43,1.05-.84,1.73-1.33,1.78-1.27Z"/>
      <path class="cls-4" d="m326.15,65.56c-.11.1-2.44-2.25-5.21-5.25-2.76-3.01-4.91-5.52-4.8-5.63.11-.1,2.44,2.25,5.21,5.26,2.76,3,4.91,5.52,4.8,5.63Z"/>
      <g>
        <path class="cls-11" d="m332.63,207.83h0c-2.01,0-3.64-1.63-3.64-3.64v-25.05c0-2.01,1.63-3.64,3.64-3.64h0c2.01,0,3.64,1.63,3.64,3.64v25.05c0,2.01-1.63,3.64-3.64,3.64Z"/>
        <path class="cls-4" d="m334.1,199.89c0-.68-.55-1.23-1.23-1.23s-1.23.55-1.23,1.23c0,.48.28.89.68,1.09v1.42c0,.3.25.55.55.55h0c.3,0,.55-.25.55-.55v-1.42c.4-.2.68-.61.68-1.09Z"/>
        <path class="cls-11" d="m350.63,190.25h-16.17c-1.07,0-1.93-.87-1.93-1.93h0c0-1.07.87-1.93,1.93-1.93h16.17c1.07,0,1.93.87,1.93,1.93h0c0,1.07-.87,1.93-1.93,1.93Z"/>
        <path class="cls-4" d="m339.81,190.36c0,.07-.86.13-2.27.21-.7.03-1.55.06-2.5-.06-.89-.11-2.13-.37-2.77-1.48-.29-.55-.34-1.2-.08-1.75.12-.27.36-.52.6-.65.24-.14.47-.22.71-.3.93-.3,1.81-.27,2.51-.27,1.41.04,2.27.15,2.27.21,0,.08-.87.12-2.26.18-.7.05-1.52.06-2.35.36-.43.16-.83.32-.98.7-.17.37-.14.86.07,1.26.47.82,1.49,1.11,2.36,1.24.89.14,1.72.15,2.42.17,1.4.02,2.28.1,2.27.18Z"/>
      </g>
    </g>
    <polygon class="cls-7" points="431.29 54.68 326.15 54.68 316.14 54.68 316.14 65.34 316.14 307.43 326.15 307.43 326.15 65.34 431.29 65.34 431.29 307.43 442.16 307.43 442.16 65.34 442.16 54.68 431.29 54.68"/>
    <path class="cls-11" d="m431.29,306.5s-.02-.41-.03-1.2c0-.8-.01-1.98-.02-3.53-.01-3.12-.03-7.71-.05-13.64-.02-11.89-.05-29.16-.08-50.7-.02-43.11-.06-103.34-.09-171.86l.27.27c-16.65,0-34,0-51.71,0-18.32,0-36.25,0-53.49,0l.27-.27c-.04,68.09-.07,127.88-.09,170.67-.03,21.38-.06,38.51-.08,50.3-.02,5.89-.04,10.44-.05,13.53-.01,1.53-.02,2.7-.02,3.5,0,.79-.02,1.19-.02,1.19,0,0-.02-.4-.02-1.19,0-.8-.01-1.97-.02-3.5-.01-3.09-.03-7.64-.05-13.53-.02-11.79-.05-28.92-.08-50.3-.02-42.78-.06-102.57-.09-170.67v-.27s.27,0,.27,0c17.24,0,35.16,0,53.49,0,17.71,0,35.06,0,51.71,0h.27v.27c-.04,68.52-.07,128.75-.09,171.86-.03,21.55-.06,38.81-.08,50.7-.02,5.93-.04,10.52-.05,13.64-.01,1.55-.02,2.73-.02,3.53,0,.79-.03,1.2-.03,1.2Z"/>
  </g>
  <path class="cls-11" d="m471.91,307.33c0,.15-102.03.28-227.85.28s-227.87-.12-227.87-.28,102-.28,227.87-.28,227.85.12,227.85.28Z"/>
</svg>